<svg id="svg" version="1.1" xmlns="http://www.w3.org/2000/svg" xmlns:xlink="http://www.w3.org/1999/xlink" width="400" height="400" viewBox="0, 0, 400,400"><g id="svgg"><path id="path0" d="M190.669 111.052 C 187.696 115.630,186.459 122.881,188.441 124.118 C 189.313 124.663,189.472 125.390,188.650 125.074 C 186.886 124.398,184.207 128.745,182.410 135.200 C 177.844 151.596,177.988 152.964,184.696 156.964 C 187.549 158.666,188.400 159.678,188.400 161.370 L 188.400 162.562 189.900 161.144 C 190.725 160.364,191.992 159.320,192.716 158.824 C 193.440 158.329,194.779 156.905,195.693 155.661 C 199.597 150.348,200.287 150.752,205.436 161.370 C 208.893 168.499,208.906 168.537,209.207 172.562 C 209.537 176.964,210.901 182.328,212.980 187.400 C 215.461 193.452,216.400 198.558,216.326 205.600 C 216.253 212.529,216.648 214.692,218.941 219.939 C 220.214 222.851,220.830 225.054,222.143 231.400 C 223.729 239.063,223.536 239.675,218.688 242.352 C 213.956 244.965,213.379 245.789,213.502 249.767 C 213.650 254.544,213.130 255.194,206.984 257.927 C 199.832 261.107,199.480 261.617,196.988 272.400 C 196.251 275.590,195.246 279.730,194.754 281.600 C 193.321 287.053,194.307 288.149,200.038 287.470 C 205.641 286.807,205.407 287.205,215.201 261.600 C 217.347 255.990,219.844 249.510,220.749 247.200 C 221.655 244.890,222.507 242.414,222.643 241.698 C 222.944 240.109,224.861 238.400,226.342 238.400 C 229.166 238.400,230.372 240.554,234.796 253.500 C 236.733 259.165,238.705 264.775,239.179 265.966 C 240.534 269.373,246.214 285.155,246.994 287.683 C 248.225 291.672,249.766 292.006,252.615 288.903 C 254.212 287.165,254.473 284.586,253.407 281.075 C 253.086 280.016,252.617 277.586,252.366 275.675 C 252.114 273.764,251.721 271.844,251.492 271.409 C 251.094 270.656,250.853 269.833,249.962 266.200 C 249.376 263.806,247.522 260.473,246.652 260.245 C 245.970 260.067,245.909 259.776,246.105 257.613 C 246.396 254.405,245.513 250.311,244.007 247.889 C 243.350 246.832,242.367 244.309,241.822 242.283 C 241.277 240.258,240.209 236.784,239.448 234.564 C 238.687 232.345,237.877 229.515,237.648 228.277 C 237.419 227.039,236.888 225.256,236.468 224.313 C 232.981 216.501,231.561 205.356,233.356 199.904 C 233.882 198.307,235.069 194.570,235.995 191.600 C 236.921 188.630,238.307 184.603,239.077 182.650 C 242.631 173.633,237.907 167.932,229.600 171.212 C 224.818 173.101,224.448 172.836,223.978 167.176 C 223.612 162.770,222.900 161.413,218.645 157.012 C 215.253 153.504,214.000 151.315,214.000 148.899 C 214.000 147.334,208.477 130.563,206.975 127.569 C 206.028 125.682,204.260 120.409,203.793 118.080 C 203.524 116.742,200.693 113.600,199.756 113.600 C 199.491 113.600,198.256 112.771,197.013 111.759 C 193.792 109.135,192.041 108.940,190.669 111.052 M182.997 170.319 C 181.895 170.700,180.365 171.459,179.597 172.007 C 178.829 172.554,177.840 173.198,177.400 173.437 C 176.326 174.022,175.244 176.279,175.214 178.000 C 175.185 179.632,174.114 184.884,172.624 190.691 C 171.758 194.065,171.582 195.608,171.622 199.491 C 171.648 202.081,171.545 205.292,171.392 206.627 C 170.861 211.256,172.814 216.461,174.676 215.379 C 176.795 214.148,188.800 178.747,188.800 173.730 C 188.800 171.637,186.811 169.417,185.113 169.613 C 185.051 169.620,184.099 169.938,182.997 170.319 M163.000 233.273 C 160.418 234.192,159.715 235.334,159.518 238.928 C 159.317 242.577,158.620 244.294,155.831 248.000 C 153.300 251.365,152.144 253.276,150.458 256.888 C 149.563 258.806,148.021 261.207,146.795 262.593 C 142.893 267.003,142.502 268.861,144.599 273.023 C 146.875 277.543,146.531 279.969,143.154 283.207 C 140.897 285.371,140.819 286.144,142.816 286.543 C 146.684 287.317,149.028 285.904,151.281 281.439 C 151.950 280.114,152.917 278.366,153.429 277.554 C 153.941 276.743,154.731 274.666,155.183 272.940 C 158.276 261.146,159.220 258.443,161.603 254.557 C 164.570 249.719,168.998 237.149,168.728 234.331 C 168.585 232.842,165.704 232.310,163.000 233.273 M142.956 292.392 C 141.073 293.153,141.788 294.800,144.000 294.800 C 146.221 294.800,147.199 293.084,145.374 292.390 C 144.184 291.938,144.080 291.938,142.956 292.392 M199.205 292.370 C 197.565 292.640,197.135 293.723,198.399 294.400 C 199.258 294.859,201.422 294.611,201.793 294.011 C 202.290 293.207,200.605 292.139,199.205 292.370 " stroke="none" fill="#a5e2c4" fill-rule="evenodd"></path><path id="path1" d="M0.000 200.000 L 0.000 400.000 200.000 400.000 L 400.000 400.000 400.000 200.000 L 400.000 0.000 200.000 0.000 L 0.000 0.000 0.000 200.000 M204.248 102.993 C 210.139 105.625,210.306 105.966,218.589 132.400 C 228.075 162.673,227.402 161.103,230.690 160.634 C 237.558 159.656,239.883 159.982,243.560 162.437 C 250.231 166.892,250.379 170.697,244.569 188.490 C 240.068 202.278,240.093 200.816,244.133 213.600 C 245.558 218.110,248.464 227.380,250.591 234.200 C 252.718 241.020,255.603 250.110,257.001 254.400 C 267.498 286.594,268.252 289.707,266.505 293.657 C 263.172 301.191,253.456 302.961,246.126 297.371 C 243.553 295.408,243.658 295.680,234.801 268.000 C 227.004 243.635,227.361 244.184,224.537 252.200 C 223.839 254.180,221.527 261.380,219.398 268.200 C 211.166 294.573,210.616 295.916,207.060 298.295 C 196.965 305.050,183.934 295.883,187.563 284.578 C 187.983 283.270,189.348 278.690,190.596 274.400 C 195.211 258.541,195.770 257.260,199.227 254.608 C 203.012 251.705,203.914 248.709,203.987 238.800 C 204.017 234.666,204.717 231.539,206.548 227.364 C 208.846 222.122,212.800 205.347,212.800 200.841 C 212.800 199.963,211.555 195.230,210.033 190.323 C 208.512 185.415,206.524 178.790,205.615 175.600 C 203.766 169.104,200.637 160.077,200.022 159.462 C 198.816 158.256,197.030 162.673,192.201 178.800 C 189.799 186.823,183.940 205.360,180.190 216.800 C 178.567 221.750,176.232 229.130,175.001 233.200 C 173.770 237.270,171.072 245.910,169.006 252.400 C 166.940 258.890,164.261 267.350,163.053 271.200 C 155.138 296.424,155.203 296.274,151.170 298.711 C 137.789 306.797,123.673 289.552,136.121 280.327 C 139.515 277.812,139.693 277.256,138.189 273.903 C 136.327 269.755,137.659 264.759,142.158 259.013 C 144.273 256.311,146.148 251.005,147.798 243.052 C 148.863 237.920,152.095 225.313,154.581 216.600 C 155.522 213.300,157.419 206.640,158.797 201.800 C 163.673 184.671,166.750 174.171,167.587 171.800 C 168.659 168.764,172.847 154.969,175.784 144.800 C 182.386 121.940,186.665 109.315,188.728 106.609 C 192.206 102.048,198.729 100.529,204.248 102.993 " stroke="none" fill="#040404" fill-rule="evenodd"></path><path id="path2" d="M194.643 106.507 C 193.787 106.998,192.675 107.940,192.171 108.600 L 191.256 109.800 192.942 109.808 C 194.353 109.815,195.008 110.125,196.951 111.708 C 198.228 112.749,199.491 113.600,199.756 113.600 C 200.693 113.600,203.524 116.742,203.793 118.080 C 204.260 120.409,206.028 125.682,206.975 127.569 C 208.477 130.563,214.000 147.334,214.000 148.899 C 214.000 151.315,215.253 153.504,218.645 157.012 C 222.900 161.413,223.612 162.770,223.978 167.176 C 224.448 172.836,224.818 173.101,229.600 171.212 C 234.529 169.266,236.692 169.849,239.536 173.894 C 240.904 175.839,240.772 178.349,239.077 182.650 C 238.307 184.603,236.921 188.630,235.995 191.600 C 235.069 194.570,233.882 198.307,233.356 199.904 C 231.561 205.356,232.981 216.501,236.468 224.313 C 236.888 225.256,237.419 227.039,237.648 228.277 C 237.877 229.515,238.687 232.345,239.448 234.564 C 240.209 236.784,241.277 240.258,241.822 242.283 C 242.367 244.309,243.350 246.832,244.007 247.889 C 245.513 250.311,246.396 254.405,246.105 257.613 C 245.909 259.776,245.970 260.067,246.652 260.245 C 247.522 260.473,249.376 263.806,249.962 266.200 C 250.853 269.833,251.094 270.656,251.492 271.409 C 251.721 271.844,252.114 273.764,252.366 275.675 C 252.617 277.586,253.086 280.016,253.407 281.075 C 254.473 284.586,254.212 287.165,252.615 288.903 C 249.766 292.006,248.225 291.672,246.994 287.683 C 246.214 285.155,240.534 269.373,239.179 265.966 C 238.705 264.775,236.733 259.165,234.796 253.500 C 230.372 240.554,229.166 238.400,226.342 238.400 C 224.861 238.400,222.944 240.109,222.643 241.698 C 222.507 242.414,221.655 244.890,220.749 247.200 C 219.844 249.510,217.347 255.990,215.201 261.600 C 205.407 287.205,205.641 286.807,200.038 287.470 C 194.307 288.149,193.321 287.053,194.754 281.600 C 195.246 279.730,196.251 275.590,196.988 272.400 C 199.480 261.617,199.832 261.107,206.984 257.927 C 213.130 255.194,213.650 254.544,213.502 249.767 C 213.379 245.789,213.956 244.965,218.688 242.352 C 223.536 239.675,223.729 239.063,222.143 231.400 C 220.830 225.054,220.214 222.851,218.941 219.939 C 216.648 214.692,216.253 212.529,216.326 205.600 C 216.400 198.556,215.461 193.451,212.977 187.394 C 212.254 185.631,211.537 183.688,211.383 183.076 C 211.230 182.464,211.021 182.045,210.920 182.146 C 210.819 182.247,211.809 185.901,213.119 190.265 C 216.230 200.625,216.121 200.019,215.592 203.971 C 214.998 208.410,215.770 213.819,217.795 219.415 C 219.431 223.934,221.200 232.227,221.200 235.378 C 221.200 237.806,220.455 239.021,218.093 240.442 C 211.941 244.145,210.822 245.633,211.341 249.424 C 211.857 253.184,210.465 254.538,203.600 256.958 C 198.387 258.796,197.813 259.476,195.794 266.200 C 189.016 288.771,188.881 289.422,190.371 292.343 C 193.702 298.873,203.993 299.766,207.384 293.820 C 208.435 291.976,211.996 281.573,215.604 269.800 C 227.035 232.510,226.361 232.679,236.401 264.600 C 246.225 295.833,245.717 294.620,249.801 296.618 C 254.164 298.753,258.425 298.317,261.428 295.429 C 264.220 292.744,264.504 290.330,262.723 284.400 C 261.271 279.565,255.950 262.658,252.715 252.600 C 250.946 247.100,249.095 241.250,248.602 239.600 C 248.109 237.950,245.712 230.262,243.276 222.514 C 236.747 201.755,236.817 202.843,241.142 189.400 C 244.827 177.944,245.355 175.882,245.343 173.000 C 245.314 166.146,238.515 161.952,231.400 164.400 C 225.721 166.354,224.533 165.389,222.406 157.097 C 220.431 149.400,210.581 118.167,208.691 113.610 C 205.848 106.757,199.659 103.628,194.643 106.507 M185.456 124.693 C 183.767 129.905,183.704 130.291,184.850 128.410 C 185.946 126.613,188.000 124.825,188.674 125.084 C 189.497 125.400,189.290 124.649,188.400 124.093 C 187.960 123.818,187.587 123.190,187.572 122.697 C 187.479 119.737,186.878 120.304,185.456 124.693 M178.095 150.104 C 175.161 153.782,172.174 167.402,173.980 168.864 C 176.910 171.237,188.400 165.392,188.400 161.529 C 188.400 159.675,187.611 158.703,184.696 156.964 C 180.803 154.643,179.200 152.857,179.200 150.843 C 179.200 149.843,178.616 149.452,178.095 150.104 M209.850 178.800 C 209.990 179.570,210.261 180.560,210.454 181.000 C 210.694 181.549,210.724 181.361,210.550 180.400 C 210.410 179.630,210.139 178.640,209.946 178.200 C 209.706 177.651,209.676 177.839,209.850 178.800 M187.417 180.400 C 185.787 187.916,176.081 214.563,174.676 215.379 C 172.787 216.476,170.953 211.465,171.338 206.260 C 171.510 203.947,171.484 203.744,171.205 205.200 C 170.512 208.810,170.734 212.982,171.771 215.838 C 174.121 222.314,175.201 220.944,180.311 205.000 C 186.039 187.128,188.114 180.134,187.885 179.474 C 187.794 179.213,187.583 179.630,187.417 180.400 M164.930 231.187 C 159.157 232.719,158.352 233.547,158.002 238.310 C 157.712 242.268,157.490 242.798,154.623 246.400 C 151.587 250.213,150.270 252.245,148.560 255.750 C 147.615 257.686,146.089 259.904,144.572 261.543 C 140.054 266.429,139.387 269.088,141.552 273.600 C 143.471 277.600,142.996 278.962,138.530 282.265 C 134.977 284.893,134.312 285.841,134.082 288.612 C 133.306 297.971,148.156 301.696,152.373 293.200 C 153.179 291.576,156.912 280.093,161.736 264.400 C 163.596 258.350,165.756 251.600,166.536 249.400 C 169.078 242.229,170.885 235.506,170.944 233.000 L 171.000 230.600 169.400 230.513 C 168.520 230.465,166.508 230.768,164.930 231.187 M168.728 234.331 C 168.998 237.149,164.570 249.719,161.603 254.557 C 159.220 258.443,158.276 261.146,155.183 272.940 C 154.731 274.666,153.941 276.743,153.429 277.554 C 152.917 278.366,151.950 280.114,151.281 281.439 C 149.028 285.904,146.684 287.317,142.816 286.543 C 140.819 286.144,140.897 285.371,143.154 283.207 C 146.531 279.969,146.875 277.543,144.599 273.023 C 142.502 268.861,142.893 267.003,146.795 262.593 C 148.021 261.207,149.563 258.806,150.458 256.888 C 152.144 253.276,153.300 251.365,155.831 248.000 C 158.620 244.294,159.317 242.577,159.518 238.928 C 159.771 234.318,161.565 232.753,166.400 232.923 C 168.582 232.999,168.601 233.011,168.728 234.331 M145.374 292.390 C 147.199 293.084,146.221 294.800,144.000 294.800 C 141.788 294.800,141.073 293.153,142.956 292.392 C 144.080 291.938,144.184 291.938,145.374 292.390 M201.793 294.011 C 201.422 294.611,199.258 294.859,198.399 294.400 C 197.135 293.723,197.565 292.640,199.205 292.370 C 200.605 292.139,202.290 293.207,201.793 294.011 " stroke="none" fill="#70c9be" fill-rule="evenodd"></path><path id="path3" d="M196.055 102.023 C 191.471 102.944,188.090 106.250,186.077 111.777 C 184.521 116.047,178.619 134.985,175.784 144.800 C 172.847 154.969,168.659 168.764,167.587 171.800 C 166.750 174.171,163.673 184.671,158.797 201.800 C 157.419 206.640,155.522 213.300,154.581 216.600 C 152.095 225.313,148.863 237.920,147.798 243.052 C 146.148 251.005,144.273 256.311,142.158 259.013 C 137.659 264.759,136.327 269.755,138.189 273.903 C 139.693 277.256,139.515 277.812,136.121 280.327 C 123.673 289.552,137.789 306.797,151.170 298.711 C 155.203 296.274,155.138 296.424,163.053 271.200 C 164.261 267.350,166.940 258.890,169.006 252.400 C 171.072 245.910,173.770 237.270,175.001 233.200 C 176.232 229.130,178.567 221.750,180.190 216.800 C 183.940 205.360,189.799 186.823,192.201 178.800 C 197.030 162.673,198.816 158.256,200.022 159.462 C 200.637 160.077,203.766 169.104,205.615 175.600 C 206.524 178.790,208.512 185.415,210.033 190.323 C 211.555 195.230,212.800 199.963,212.800 200.841 C 212.800 205.347,208.846 222.122,206.548 227.364 C 204.717 231.539,204.017 234.666,203.987 238.800 C 203.914 248.709,203.012 251.705,199.227 254.608 C 195.770 257.260,195.211 258.541,190.596 274.400 C 189.348 278.690,187.983 283.270,187.563 284.578 C 183.934 295.883,196.965 305.050,207.060 298.295 C 210.616 295.916,211.166 294.573,219.398 268.200 C 221.527 261.380,223.839 254.180,224.537 252.200 C 227.361 244.184,227.004 243.635,234.801 268.000 C 243.658 295.680,243.553 295.408,246.126 297.371 C 253.456 302.961,263.172 301.191,266.505 293.657 C 268.252 289.707,267.498 286.594,257.001 254.400 C 255.603 250.110,252.718 241.020,250.591 234.200 C 248.464 227.380,245.558 218.110,244.133 213.600 C 240.093 200.816,240.068 202.278,244.569 188.490 C 250.379 170.697,250.231 166.892,243.560 162.437 C 239.883 159.982,237.558 159.656,230.690 160.634 C 227.402 161.103,228.075 162.673,218.589 132.400 C 211.075 108.422,210.956 108.118,207.970 105.421 C 204.806 102.562,200.078 101.214,196.055 102.023 M203.412 105.513 C 208.346 108.058,208.596 108.659,220.068 145.600 C 225.576 163.337,226.402 164.667,231.114 163.374 C 237.495 161.622,243.162 163.662,245.426 168.524 C 247.147 172.222,246.827 174.206,242.149 188.786 C 237.763 202.456,237.779 201.889,241.449 213.534 C 242.673 217.420,245.997 227.980,248.835 237.000 C 251.673 246.020,255.257 257.360,256.801 262.200 C 264.066 284.987,264.899 287.959,264.719 290.456 C 264.249 296.949,257.113 300.450,250.501 297.432 C 246.138 295.441,245.376 294.257,242.251 284.600 C 229.111 243.995,228.579 242.553,226.878 242.880 C 225.512 243.144,224.291 246.127,219.413 261.125 C 207.614 297.401,208.515 295.226,204.426 297.300 C 195.715 301.718,186.833 293.973,189.770 284.521 C 190.303 282.804,190.913 280.770,191.126 280.000 C 196.916 259.078,197.383 258.142,203.101 256.035 C 209.413 253.710,210.274 252.886,209.836 249.589 C 209.317 245.673,210.768 242.992,214.593 240.804 C 219.656 237.907,220.046 236.733,217.870 230.940 C 217.138 228.993,215.927 225.780,215.178 223.800 C 213.535 219.455,213.207 214.597,214.059 207.230 C 214.889 200.051,214.816 199.518,211.659 189.581 C 210.083 184.620,208.175 178.140,207.418 175.181 C 206.065 169.888,202.585 159.491,201.397 157.195 C 199.114 152.780,196.268 156.998,192.551 170.301 C 187.712 187.623,178.356 216.689,175.384 223.636 C 174.669 225.306,173.792 228.096,173.434 229.836 C 172.560 234.085,169.174 245.354,166.774 252.000 C 165.702 254.970,163.649 261.270,162.213 266.000 C 154.095 292.732,152.930 295.492,148.929 297.456 C 137.679 302.981,127.618 288.916,137.879 282.008 C 142.197 279.101,142.824 277.325,140.800 273.738 C 138.548 269.749,139.672 265.325,144.185 260.416 C 145.547 258.935,146.954 256.832,147.753 255.085 C 149.143 252.045,151.222 248.627,153.479 245.669 C 155.818 242.605,156.098 241.761,156.151 237.621 C 156.223 232.015,157.083 231.118,164.800 228.604 C 171.933 226.280,171.504 223.413,163.662 220.992 C 160.468 220.006,160.409 219.864,160.655 213.656 C 161.001 204.910,165.124 186.209,169.442 173.800 C 173.451 162.279,174.789 157.875,175.996 152.220 C 177.444 145.436,179.407 138.328,182.519 128.600 C 183.715 124.860,185.368 119.640,186.193 117.000 C 187.893 111.554,188.829 109.493,190.344 107.864 C 193.347 104.634,199.546 103.519,203.412 105.513 " stroke="none" fill="#586147" fill-rule="evenodd"></path><path id="path4" d="M195.400 104.935 C 190.262 106.638,188.851 108.487,186.193 117.000 C 185.368 119.640,183.715 124.860,182.519 128.600 C 178.639 140.726,174.764 155.697,175.351 156.285 C 175.446 156.380,175.653 155.859,175.811 155.129 C 176.139 153.607,177.163 151.479,178.551 149.435 C 179.144 148.560,179.755 146.693,180.157 144.530 C 182.016 134.507,188.738 113.802,191.454 109.732 C 196.188 102.638,204.958 104.611,208.691 113.610 C 210.581 118.167,220.431 149.400,222.406 157.097 C 224.533 165.389,225.721 166.354,231.400 164.400 C 238.515 161.952,245.314 166.146,245.343 173.000 C 245.355 175.882,244.827 177.944,241.142 189.400 C 236.817 202.843,236.747 201.755,243.276 222.514 C 245.712 230.262,248.109 237.950,248.602 239.600 C 249.095 241.250,250.946 247.100,252.715 252.600 C 255.950 262.658,261.271 279.565,262.723 284.400 C 264.504 290.330,264.220 292.744,261.428 295.429 C 258.425 298.317,254.164 298.753,249.801 296.618 C 245.717 294.620,246.225 295.833,236.401 264.600 C 226.361 232.679,227.035 232.510,215.604 269.800 C 211.996 281.573,208.435 291.976,207.384 293.820 C 203.993 299.766,193.702 298.873,190.371 292.343 C 189.012 289.678,189.317 287.848,193.397 274.200 C 198.181 258.199,197.680 259.045,203.600 256.958 C 210.465 254.538,211.857 253.184,211.341 249.424 C 210.822 245.633,211.941 244.145,218.093 240.442 C 220.455 239.021,221.200 237.806,221.200 235.378 C 221.200 232.227,219.431 223.934,217.795 219.415 C 215.770 213.819,214.998 208.410,215.592 203.971 C 216.113 200.078,216.166 200.398,213.585 191.800 C 209.578 178.450,209.553 178.347,209.236 173.385 L 208.928 168.570 205.522 161.585 C 200.481 151.248,199.516 150.669,195.698 155.692 C 194.746 156.944,193.389 158.366,192.683 158.852 C 191.978 159.338,189.916 161.221,188.101 163.038 C 181.991 169.155,173.890 171.522,173.106 167.420 C 172.924 166.469,173.067 165.334,173.760 162.200 C 173.907 161.540,173.196 163.250,172.182 166.000 C 165.785 183.350,161.086 202.776,160.655 213.656 C 160.409 219.864,160.468 220.006,163.662 220.992 C 171.504 223.413,171.933 226.280,164.800 228.604 C 157.083 231.118,156.223 232.015,156.151 237.621 C 156.098 241.761,155.818 242.605,153.479 245.669 C 151.222 248.627,149.143 252.045,147.753 255.085 C 146.954 256.832,145.547 258.935,144.185 260.416 C 139.672 265.325,138.548 269.749,140.800 273.738 C 142.824 277.325,142.197 279.101,137.879 282.008 C 127.618 288.916,137.679 302.981,148.929 297.456 C 152.930 295.492,154.095 292.732,162.213 266.000 C 163.649 261.270,165.702 254.970,166.774 252.000 C 169.174 245.354,172.560 234.085,173.434 229.836 C 173.792 228.096,174.669 225.306,175.384 223.636 C 178.356 216.689,187.712 187.623,192.551 170.301 C 196.268 156.998,199.114 152.780,201.397 157.195 C 202.585 159.491,206.065 169.888,207.418 175.181 C 208.175 178.140,210.083 184.620,211.659 189.581 C 214.816 199.518,214.889 200.051,214.059 207.230 C 213.207 214.597,213.535 219.455,215.178 223.800 C 215.927 225.780,217.138 228.993,217.870 230.940 C 220.046 236.733,219.656 237.907,214.593 240.804 C 210.768 242.992,209.317 245.673,209.836 249.589 C 210.274 252.886,209.413 253.710,203.101 256.035 C 197.383 258.142,196.916 259.078,191.126 280.000 C 190.913 280.770,190.303 282.804,189.770 284.521 C 186.833 293.973,195.715 301.718,204.426 297.300 C 208.515 295.226,207.614 297.401,219.413 261.125 C 224.291 246.127,225.512 243.144,226.878 242.880 C 228.579 242.553,229.111 243.995,242.251 284.600 C 245.376 294.257,246.138 295.441,250.501 297.432 C 257.113 300.450,264.249 296.949,264.719 290.456 C 264.899 287.959,264.066 284.987,256.801 262.200 C 255.257 257.360,251.673 246.020,248.835 237.000 C 245.997 227.980,242.673 217.420,241.449 213.534 C 237.779 201.889,237.763 202.456,242.149 188.786 C 246.827 174.206,247.147 172.222,245.426 168.524 C 243.162 163.662,237.495 161.622,231.114 163.374 C 226.402 164.667,225.576 163.337,220.068 145.600 C 209.942 112.994,209.055 110.532,206.481 107.866 C 203.607 104.890,199.119 103.703,195.400 104.935 M174.229 159.429 C 174.081 160.015,174.038 160.572,174.132 160.666 C 174.227 160.760,174.424 160.358,174.571 159.771 C 174.719 159.185,174.762 158.628,174.668 158.534 C 174.573 158.440,174.376 158.842,174.229 159.429 M186.581 170.166 C 190.512 171.809,189.929 175.048,180.316 205.000 C 175.137 221.135,173.969 222.518,171.579 215.338 C 170.807 213.016,170.731 212.192,170.965 208.645 C 171.111 206.420,171.382 201.990,171.567 198.800 C 171.792 194.941,172.202 191.929,172.794 189.800 C 174.007 185.436,175.184 179.697,175.214 178.000 C 175.244 176.279,176.326 174.022,177.400 173.437 C 177.840 173.198,178.829 172.554,179.597 172.007 C 180.662 171.248,184.181 169.721,185.113 169.613 C 185.175 169.606,185.835 169.855,186.581 170.166 M170.944 233.000 C 170.885 235.506,169.078 242.229,166.536 249.400 C 165.756 251.600,163.596 258.350,161.736 264.400 C 156.912 280.093,153.179 291.576,152.373 293.200 C 148.156 301.696,133.306 297.971,134.082 288.612 C 134.312 285.841,134.977 284.893,138.530 282.265 C 142.996 278.962,143.471 277.600,141.552 273.600 C 139.387 269.088,140.054 266.429,144.572 261.543 C 146.089 259.904,147.615 257.686,148.560 255.750 C 150.270 252.245,151.587 250.213,154.623 246.400 C 157.490 242.798,157.712 242.268,158.002 238.310 C 158.277 234.559,158.727 233.672,160.929 232.533 C 162.752 231.591,167.667 230.418,169.400 230.513 L 171.000 230.600 170.944 233.000 " stroke="none" fill="#848457" fill-rule="evenodd"></path></g></svg>